<?xml version="1.0" encoding="UTF-8" standalone="no"?>
<!-- Created with Inkscape (http://www.inkscape.org/) -->

<svg
   width="19.953651mm"
   height="12.591641mm"
   viewBox="0 0 19.953651 12.591641"
   version="1.1"
   id="svg1"
   xml:space="preserve"
   inkscape:version="1.3 (0e150ed6c4, 2023-07-21)"
   sodipodi:docname="drawing.svg"
   xmlns:inkscape="http://www.inkscape.org/namespaces/inkscape"
   xmlns:sodipodi="http://sodipodi.sourceforge.net/DTD/sodipodi-0.dtd"
   xmlns="http://www.w3.org/2000/svg"
   xmlns:svg="http://www.w3.org/2000/svg"><sodipodi:namedview
     id="namedview1"
     pagecolor="#ffffff"
     bordercolor="#000000"
     borderopacity="0.25"
     inkscape:showpageshadow="2"
     inkscape:pageopacity="0.0"
     inkscape:pagecheckerboard="0"
     inkscape:deskcolor="#d1d1d1"
     inkscape:document-units="mm"
     inkscape:zoom="0.80978535"
     inkscape:cx="382.81749"
     inkscape:cy="243.89179"
     inkscape:window-width="1920"
     inkscape:window-height="1129"
     inkscape:window-x="1912"
     inkscape:window-y="-8"
     inkscape:window-maximized="1"
     inkscape:current-layer="layer1" /><defs
     id="defs1"><clipPath
       clipPathUnits="userSpaceOnUse"
       id="clipEmfPath1-6"><path
         d="M 0,0 H 77.519079 V 43.859479 H 0 Z"
         id="path1-4" /></clipPath></defs><g
     inkscape:label="Layer 1"
     inkscape:groupmode="layer"
     id="layer1"
     transform="translate(-96.730799,-174.05264)"><path
       style="fill:#d8d8d8;fill-opacity:1;fill-rule:evenodd;stroke:none;stroke-width:0.264583"
       d="m 98.476533,174.0948 v 9.31058 h 18.165737 v -9.31058 z"
       id="path2-2" /><path
       style="fill:none;stroke:#000000;stroke-width:0.318746px;stroke-linecap:round;stroke-linejoin:round;stroke-miterlimit:4;stroke-dasharray:none;stroke-opacity:1"
       clip-path="url(#clipEmfPath1-6)"
       d="M 7.6499091,36.400818 H 76.307844 V 1.2112356 H 7.6499091 Z"
       id="path3-1"
       transform="matrix(0.26458333,0,0,0.26458333,96.452493,173.77433)" /><path
       style="fill:#d8d8d8;fill-opacity:1;fill-rule:evenodd;stroke:none;stroke-width:0.264583"
       d="m 97.751253,174.53334 v 9.29371 h 18.165737 v -9.29371 z"
       id="path4-5" /><path
       style="fill:none;stroke:#000000;stroke-width:0.0843349px;stroke-linecap:round;stroke-linejoin:round;stroke-miterlimit:4;stroke-dasharray:none;stroke-opacity:1"
       d="m 97.751253,183.82705 h 18.165737 v -9.29371 H 97.751253 Z"
       id="path5-5" /><path
       style="fill:#d8d8d8;fill-opacity:1;fill-rule:evenodd;stroke:none;stroke-width:0.264583"
       d="m 97.312713,175.07309 v 9.29371 h 18.182607 v -9.29371 z"
       id="path6-4" /><path
       style="fill:none;stroke:#000000;stroke-width:0.0843349px;stroke-linecap:round;stroke-linejoin:round;stroke-miterlimit:4;stroke-dasharray:none;stroke-opacity:1"
       d="m 97.312713,184.3668 h 18.182607 v -9.29371 H 97.312713 Z"
       id="path7-5" /><path
       style="fill:#f2dcda;fill-opacity:1;fill-rule:evenodd;stroke:none;stroke-width:0.264583"
       d="m 96.772963,175.74777 v 9.31057 h 17.980207 v -9.31057 z"
       id="path8-7" /><path
       style="fill:none;stroke:#000000;stroke-width:0.318746px;stroke-linecap:round;stroke-linejoin:round;stroke-miterlimit:4;stroke-dasharray:none;stroke-opacity:1"
       clip-path="url(#clipEmfPath1-6)"
       d="M 1.2112356,42.648243 H 69.167929 V 7.4586614 H 1.2112356 Z"
       id="path9-4"
       transform="matrix(0.26458333,0,0,0.26458333,96.452493,173.77433)" /><path
       style="fill:#bfbfbf;fill-opacity:1;fill-rule:evenodd;stroke:none;stroke-width:0.264583"
       d="m 108.56299,175.74777 v 9.31057 h 6.19018 v -9.31057 z"
       id="path10-6" /><path
       style="fill:none;stroke:#000000;stroke-width:0.318746px;stroke-linecap:round;stroke-linejoin:round;stroke-miterlimit:4;stroke-dasharray:none;stroke-opacity:1"
       clip-path="url(#clipEmfPath1-6)"
       d="M 45.771956,42.648243 H 69.167929 V 7.4586614 H 45.771956 Z"
       id="path11-5"
       transform="matrix(0.26458333,0,0,0.26458333,96.452493,173.77433)" /><path
       style="fill:#fff2cc;fill-opacity:1;fill-rule:evenodd;stroke:none;stroke-width:0.264583"
       d="m 96.772963,175.74777 v 9.31057 h 6.207047 v -9.31057 z"
       id="path12-1" /><path
       style="fill:none;stroke:#000000;stroke-width:0.318746px;stroke-linecap:round;stroke-linejoin:round;stroke-miterlimit:4;stroke-dasharray:none;stroke-opacity:1"
       clip-path="url(#clipEmfPath1-6)"
       d="M 1.2112356,42.648243 H 24.670957 V 7.4586614 H 1.2112356 Z"
       id="path13-3"
       transform="matrix(0.26458333,0,0,0.26458333,96.452493,173.77433)" /><path
       style="fill:#92cddc;fill-opacity:1;fill-rule:evenodd;stroke:none;stroke-width:0.264583"
       d="m 97.076573,178.76696 c 0,-0.32047 0.253,-0.57348 0.57348,-0.57348 0.32047,0 0.59034,0.25301 0.59034,0.57348 0,0.33734 -0.26987,0.59034 -0.59034,0.59034 -0.32048,0 -0.57348,-0.253 -0.57348,-0.59034 z"
       id="path14-9" /><path
       style="fill:none;stroke:#000000;stroke-width:0.0843349px;stroke-linecap:round;stroke-linejoin:round;stroke-miterlimit:4;stroke-dasharray:none;stroke-opacity:1"
       d="m 97.076573,178.76696 c 0,-0.32047 0.253,-0.57348 0.57348,-0.57348 0.32047,0 0.59034,0.25301 0.59034,0.57348 0,0.33734 -0.26987,0.59034 -0.59034,0.59034 -0.32048,0 -0.57348,-0.253 -0.57348,-0.59034"
       id="path15-2" /><path
       style="fill:#92cddc;fill-opacity:1;fill-rule:evenodd;stroke:none;stroke-width:0.264583"
       d="m 99.319883,178.76696 c 0,-0.32047 0.253,-0.57348 0.57348,-0.57348 0.320467,0 0.590337,0.25301 0.590337,0.57348 0,0.33734 -0.26987,0.59034 -0.590337,0.59034 -0.32048,0 -0.57348,-0.253 -0.57348,-0.59034 z"
       id="path16-9" /><path
       style="fill:none;stroke:#000000;stroke-width:0.0843349px;stroke-linecap:round;stroke-linejoin:round;stroke-miterlimit:4;stroke-dasharray:none;stroke-opacity:1"
       d="m 99.319883,178.76696 c 0,-0.32047 0.253,-0.57348 0.57348,-0.57348 0.320467,0 0.590337,0.25301 0.590337,0.57348 0,0.33734 -0.26987,0.59034 -0.590337,0.59034 -0.32048,0 -0.57348,-0.253 -0.57348,-0.59034"
       id="path17-68" /><path
       style="fill:#92cddc;fill-opacity:1;fill-rule:evenodd;stroke:none;stroke-width:0.264583"
       d="m 101.56319,178.76696 c 0,-0.32047 0.253,-0.57348 0.59034,-0.57348 0.32047,0 0.57348,0.25301 0.57348,0.57348 0,0.33734 -0.25301,0.59034 -0.57348,0.59034 -0.33734,0 -0.59034,-0.253 -0.59034,-0.59034 z"
       id="path18-5" /><path
       style="fill:none;stroke:#000000;stroke-width:0.0843349px;stroke-linecap:round;stroke-linejoin:round;stroke-miterlimit:4;stroke-dasharray:none;stroke-opacity:1"
       d="m 101.56319,178.76696 c 0,-0.32047 0.253,-0.57348 0.59034,-0.57348 0.32047,0 0.57348,0.25301 0.57348,0.57348 0,0.33734 -0.25301,0.59034 -0.57348,0.59034 -0.33734,0 -0.59034,-0.253 -0.59034,-0.59034"
       id="path19-2" /><path
       style="fill:#92cddc;fill-opacity:1;fill-rule:evenodd;stroke:none;stroke-width:0.264583"
       d="m 98.071723,180.40306 c 0,-0.32048 0.26987,-0.57348 0.59035,-0.57348 0.32047,0 0.57347,0.253 0.57347,0.57348 0,0.32047 -0.253,0.59034 -0.57347,0.59034 -0.32048,0 -0.59035,-0.26987 -0.59035,-0.59034 z"
       id="path20-9" /><path
       style="fill:none;stroke:#000000;stroke-width:0.0843349px;stroke-linecap:round;stroke-linejoin:round;stroke-miterlimit:4;stroke-dasharray:none;stroke-opacity:1"
       d="m 98.071723,180.40306 c 0,-0.32048 0.26987,-0.57348 0.59035,-0.57348 0.32047,0 0.57347,0.253 0.57347,0.57348 0,0.32047 -0.253,0.59034 -0.57347,0.59034 -0.32048,0 -0.59035,-0.26987 -0.59035,-0.59034"
       id="path21-2" /><path
       style="fill:#92cddc;fill-opacity:1;fill-rule:evenodd;stroke:none;stroke-width:0.264583"
       d="m 100.55117,180.40306 c 0,-0.32048 0.26987,-0.57348 0.59034,-0.57348 0.32048,0 0.57348,0.253 0.57348,0.57348 0,0.32047 -0.253,0.59034 -0.57348,0.59034 -0.32047,0 -0.59034,-0.26987 -0.59034,-0.59034 z"
       id="path22-3" /><path
       style="fill:none;stroke:#000000;stroke-width:0.0843349px;stroke-linecap:round;stroke-linejoin:round;stroke-miterlimit:4;stroke-dasharray:none;stroke-opacity:1"
       d="m 100.55117,180.40306 c 0,-0.32048 0.26987,-0.57348 0.59034,-0.57348 0.32048,0 0.57348,0.253 0.57348,0.57348 0,0.32047 -0.253,0.59034 -0.57348,0.59034 -0.32047,0 -0.59034,-0.26987 -0.59034,-0.59034"
       id="path23-1" /><path
       style="fill:#92cddc;fill-opacity:1;fill-rule:evenodd;stroke:none;stroke-width:0.264583"
       d="m 97.144043,182.03915 c 0,-0.32047 0.26987,-0.59034 0.59034,-0.59034 0.32047,0 0.57348,0.26987 0.57348,0.59034 0,0.32048 -0.25301,0.57348 -0.57348,0.57348 -0.32047,0 -0.59034,-0.253 -0.59034,-0.57348 z"
       id="path24-8" /><path
       style="fill:none;stroke:#000000;stroke-width:0.0843349px;stroke-linecap:round;stroke-linejoin:round;stroke-miterlimit:4;stroke-dasharray:none;stroke-opacity:1"
       d="m 97.144043,182.03915 c 0,-0.32047 0.26987,-0.59034 0.59034,-0.59034 0.32047,0 0.57348,0.26987 0.57348,0.59034 0,0.32048 -0.25301,0.57348 -0.57348,0.57348 -0.32047,0 -0.59034,-0.253 -0.59034,-0.57348"
       id="path25-4" /><path
       style="fill:#92cddc;fill-opacity:1;fill-rule:evenodd;stroke:none;stroke-width:0.264583"
       d="m 99.589753,182.03915 c 0,-0.32047 0.253,-0.59034 0.590337,-0.59034 0.32048,0 0.57348,0.26987 0.57348,0.59034 0,0.32048 -0.253,0.57348 -0.57348,0.57348 -0.337337,0 -0.590337,-0.253 -0.590337,-0.57348 z"
       id="path26-1" /><path
       style="fill:none;stroke:#000000;stroke-width:0.0843349px;stroke-linecap:round;stroke-linejoin:round;stroke-miterlimit:4;stroke-dasharray:none;stroke-opacity:1"
       d="m 99.589753,182.03915 c 0,-0.32047 0.253,-0.59034 0.590337,-0.59034 0.32048,0 0.57348,0.26987 0.57348,0.59034 0,0.32048 -0.253,0.57348 -0.57348,0.57348 -0.337337,0 -0.590337,-0.253 -0.590337,-0.57348"
       id="path27-1" /><path
       style="fill:#92cddc;fill-opacity:1;fill-rule:evenodd;stroke:none;stroke-width:0.264583"
       d="m 101.42825,182.03915 c 0,-0.32047 0.25301,-0.59034 0.57348,-0.59034 0.32047,0 0.59034,0.26987 0.59034,0.59034 0,0.32048 -0.26987,0.57348 -0.59034,0.57348 -0.32047,0 -0.57348,-0.253 -0.57348,-0.57348 z"
       id="path28-5" /><path
       style="fill:none;stroke:#000000;stroke-width:0.0843349px;stroke-linecap:round;stroke-linejoin:round;stroke-miterlimit:4;stroke-dasharray:none;stroke-opacity:1"
       d="m 101.42825,182.03915 c 0,-0.32047 0.25301,-0.59034 0.57348,-0.59034 0.32047,0 0.59034,0.26987 0.59034,0.59034 0,0.32048 -0.26987,0.57348 -0.59034,0.57348 -0.32047,0 -0.57348,-0.253 -0.57348,-0.57348"
       id="path29-3" /><path
       style="fill:#92cddc;fill-opacity:1;fill-rule:evenodd;stroke:none;stroke-width:0.264583"
       d="m 98.054853,177.4176 c 0,-0.32047 0.25301,-0.57348 0.57348,-0.57348 0.32047,0 0.59035,0.25301 0.59035,0.57348 0,0.32047 -0.26988,0.59034 -0.59035,0.59034 -0.32047,0 -0.57348,-0.26987 -0.57348,-0.59034 z"
       id="path30-7" /><path
       style="fill:none;stroke:#000000;stroke-width:0.0843349px;stroke-linecap:round;stroke-linejoin:round;stroke-miterlimit:4;stroke-dasharray:none;stroke-opacity:1"
       d="m 98.054853,177.4176 c 0,-0.32047 0.25301,-0.57348 0.57348,-0.57348 0.32047,0 0.59035,0.25301 0.59035,0.57348 0,0.32047 -0.26988,0.59034 -0.59035,0.59034 -0.32047,0 -0.57348,-0.26987 -0.57348,-0.59034"
       id="path31-0" /><path
       style="fill:#92cddc;fill-opacity:1;fill-rule:evenodd;stroke:none;stroke-width:0.264583"
       d="m 100.5343,177.4176 c 0,-0.32047 0.25301,-0.57348 0.57348,-0.57348 0.33734,0 0.59034,0.25301 0.59034,0.57348 0,0.32047 -0.253,0.59034 -0.59034,0.59034 -0.32047,0 -0.57348,-0.26987 -0.57348,-0.59034 z"
       id="path32-3" /><path
       style="fill:none;stroke:#000000;stroke-width:0.0843349px;stroke-linecap:round;stroke-linejoin:round;stroke-miterlimit:4;stroke-dasharray:none;stroke-opacity:1"
       d="m 100.5343,177.4176 c 0,-0.32047 0.25301,-0.57348 0.57348,-0.57348 0.33734,0 0.59034,0.25301 0.59034,0.57348 0,0.32047 -0.253,0.59034 -0.59034,0.59034 -0.32047,0 -0.57348,-0.26987 -0.57348,-0.59034"
       id="path33-3" /><path
       style="fill:#923931;fill-opacity:1;fill-rule:evenodd;stroke:none;stroke-width:0.264583"
       d="m 108.74852,180.9934 c 0,0.32047 0.26987,0.57348 0.59035,0.57348 0.32047,0 0.57348,-0.25301 0.57348,-0.57348 0,-0.32047 -0.25301,-0.59034 -0.57348,-0.59034 -0.32048,0 -0.59035,0.26987 -0.59035,0.59034 z"
       id="path34-9" /><path
       style="fill:none;stroke:#000000;stroke-width:0.0843349px;stroke-linecap:round;stroke-linejoin:round;stroke-miterlimit:4;stroke-dasharray:none;stroke-opacity:1"
       d="m 108.74852,180.9934 c 0,0.32047 0.26987,0.57348 0.59035,0.57348 0.32047,0 0.57348,-0.25301 0.57348,-0.57348 0,-0.32047 -0.25301,-0.59034 -0.57348,-0.59034 -0.32048,0 -0.59035,0.26987 -0.59035,0.59034"
       id="path35-73" /><path
       style="fill:#923931;fill-opacity:1;fill-rule:evenodd;stroke:none;stroke-width:0.264583"
       d="m 110.99183,180.9934 c 0,0.32047 0.26987,0.57348 0.59035,0.57348 0.32047,0 0.57347,-0.25301 0.57347,-0.57348 0,-0.32047 -0.253,-0.59034 -0.57347,-0.59034 -0.32048,0 -0.59035,0.26987 -0.59035,0.59034 z"
       id="path36-3" /><path
       style="fill:none;stroke:#000000;stroke-width:0.0843349px;stroke-linecap:round;stroke-linejoin:round;stroke-miterlimit:4;stroke-dasharray:none;stroke-opacity:1"
       d="m 110.99183,180.9934 c 0,0.32047 0.26987,0.57348 0.59035,0.57348 0.32047,0 0.57347,-0.25301 0.57347,-0.57348 0,-0.32047 -0.253,-0.59034 -0.57347,-0.59034 -0.32048,0 -0.59035,0.26987 -0.59035,0.59034"
       id="path37-8" /><path
       style="fill:#923931;fill-opacity:1;fill-rule:evenodd;stroke:none;stroke-width:0.264583"
       d="m 113.23514,180.9934 c 0,0.32047 0.26987,0.57348 0.59035,0.57348 0.32047,0 0.59034,-0.25301 0.59034,-0.57348 0,-0.32047 -0.26987,-0.59034 -0.59034,-0.59034 -0.32048,0 -0.59035,0.26987 -0.59035,0.59034 z"
       id="path38-9" /><path
       style="fill:none;stroke:#000000;stroke-width:0.0843349px;stroke-linecap:round;stroke-linejoin:round;stroke-miterlimit:4;stroke-dasharray:none;stroke-opacity:1"
       d="m 113.23514,180.9934 c 0,0.32047 0.26987,0.57348 0.59035,0.57348 0.32047,0 0.59034,-0.25301 0.59034,-0.57348 0,-0.32047 -0.26987,-0.59034 -0.59034,-0.59034 -0.32048,0 -0.59035,0.26987 -0.59035,0.59034"
       id="path39-5" /><path
       style="fill:#923931;fill-opacity:1;fill-rule:evenodd;stroke:none;stroke-width:0.264583"
       d="m 109.76054,179.3573 c 0,0.32048 0.25301,0.59035 0.57348,0.59035 0.32047,0 0.59034,-0.26987 0.59034,-0.59035 0,-0.32047 -0.26987,-0.57347 -0.59034,-0.57347 -0.32047,0 -0.57348,0.253 -0.57348,0.57347 z"
       id="path40-0" /><path
       style="fill:none;stroke:#000000;stroke-width:0.0843349px;stroke-linecap:round;stroke-linejoin:round;stroke-miterlimit:4;stroke-dasharray:none;stroke-opacity:1"
       d="m 109.76054,179.3573 c 0,0.32048 0.25301,0.59035 0.57348,0.59035 0.32047,0 0.59034,-0.26987 0.59034,-0.59035 0,-0.32047 -0.26987,-0.57347 -0.59034,-0.57347 -0.32047,0 -0.57348,0.253 -0.57348,0.57347"
       id="path41-5" /><path
       style="fill:#923931;fill-opacity:1;fill-rule:evenodd;stroke:none;stroke-width:0.264583"
       d="m 112.23999,179.3573 c 0,0.32048 0.253,0.59035 0.57348,0.59035 0.32047,0 0.59034,-0.26987 0.59034,-0.59035 0,-0.32047 -0.26987,-0.57347 -0.59034,-0.57347 -0.32048,0 -0.57348,0.253 -0.57348,0.57347 z"
       id="path42-7" /><path
       style="fill:none;stroke:#000000;stroke-width:0.0843349px;stroke-linecap:round;stroke-linejoin:round;stroke-miterlimit:4;stroke-dasharray:none;stroke-opacity:1"
       d="m 112.23999,179.3573 c 0,0.32048 0.253,0.59035 0.57348,0.59035 0.32047,0 0.59034,-0.26987 0.59034,-0.59035 0,-0.32047 -0.26987,-0.57347 -0.59034,-0.57347 -0.32048,0 -0.57348,0.253 -0.57348,0.57347"
       id="path43-8" /><path
       style="fill:#923931;fill-opacity:1;fill-rule:evenodd;stroke:none;stroke-width:0.264583"
       d="m 108.83286,177.73807 c 0,0.32047 0.253,0.57348 0.57348,0.57348 0.32047,0 0.59034,-0.25301 0.59034,-0.57348 0,-0.32047 -0.26987,-0.59034 -0.59034,-0.59034 -0.32048,0 -0.57348,0.26987 -0.57348,0.59034 z"
       id="path44-7" /><path
       style="fill:none;stroke:#000000;stroke-width:0.0843349px;stroke-linecap:round;stroke-linejoin:round;stroke-miterlimit:4;stroke-dasharray:none;stroke-opacity:1"
       d="m 108.83286,177.73807 c 0,0.32047 0.253,0.57348 0.57348,0.57348 0.32047,0 0.59034,-0.25301 0.59034,-0.57348 0,-0.32047 -0.26987,-0.59034 -0.59034,-0.59034 -0.32048,0 -0.57348,0.26987 -0.57348,0.59034"
       id="path45-2" /><path
       style="fill:#923931;fill-opacity:1;fill-rule:evenodd;stroke:none;stroke-width:0.264583"
       d="m 111.2617,177.73807 c 0,0.32047 0.26988,0.57348 0.59035,0.57348 0.32047,0 0.59034,-0.25301 0.59034,-0.57348 0,-0.32047 -0.26987,-0.59034 -0.59034,-0.59034 -0.32047,0 -0.59035,0.26987 -0.59035,0.59034 z"
       id="path46-9" /><path
       style="fill:none;stroke:#000000;stroke-width:0.0843349px;stroke-linecap:round;stroke-linejoin:round;stroke-miterlimit:4;stroke-dasharray:none;stroke-opacity:1"
       d="m 111.2617,177.73807 c 0,0.32047 0.26988,0.57348 0.59035,0.57348 0.32047,0 0.59034,-0.25301 0.59034,-0.57348 0,-0.32047 -0.26987,-0.59034 -0.59034,-0.59034 -0.32047,0 -0.59035,0.26987 -0.59035,0.59034"
       id="path47-0" /><path
       style="fill:#923931;fill-opacity:1;fill-rule:evenodd;stroke:none;stroke-width:0.264583"
       d="m 113.10021,177.73807 c 0,0.32047 0.26987,0.57348 0.59034,0.57348 0.32047,0 0.57348,-0.25301 0.57348,-0.57348 0,-0.32047 -0.25301,-0.59034 -0.57348,-0.59034 -0.32047,0 -0.59034,0.26987 -0.59034,0.59034 z"
       id="path48-8" /><path
       style="fill:none;stroke:#000000;stroke-width:0.0843349px;stroke-linecap:round;stroke-linejoin:round;stroke-miterlimit:4;stroke-dasharray:none;stroke-opacity:1"
       d="m 113.10021,177.73807 c 0,0.32047 0.26987,0.57348 0.59034,0.57348 0.32047,0 0.57348,-0.25301 0.57348,-0.57348 0,-0.32047 -0.25301,-0.59034 -0.57348,-0.59034 -0.32047,0 -0.59034,0.26987 -0.59034,0.59034"
       id="path49-0" /><path
       style="fill:#923931;fill-opacity:1;fill-rule:evenodd;stroke:none;stroke-width:0.264583"
       d="m 109.72681,182.34276 c 0,0.32047 0.26987,0.59034 0.59034,0.59034 0.32048,0 0.57348,-0.26987 0.57348,-0.59034 0,-0.32047 -0.253,-0.57348 -0.57348,-0.57348 -0.32047,0 -0.59034,0.25301 -0.59034,0.57348 z"
       id="path50" /><path
       style="fill:none;stroke:#000000;stroke-width:0.0843349px;stroke-linecap:round;stroke-linejoin:round;stroke-miterlimit:4;stroke-dasharray:none;stroke-opacity:1"
       d="m 109.72681,182.34276 c 0,0.32047 0.26987,0.59034 0.59034,0.59034 0.32048,0 0.57348,-0.26987 0.57348,-0.59034 0,-0.32047 -0.253,-0.57348 -0.57348,-0.57348 -0.32047,0 -0.59034,0.25301 -0.59034,0.57348"
       id="path51-45" /><path
       style="fill:#923931;fill-opacity:1;fill-rule:evenodd;stroke:none;stroke-width:0.264583"
       d="m 112.20626,182.34276 c 0,0.32047 0.26987,0.59034 0.59034,0.59034 0.32047,0 0.57348,-0.26987 0.57348,-0.59034 0,-0.32047 -0.25301,-0.57348 -0.57348,-0.57348 -0.32047,0 -0.59034,0.25301 -0.59034,0.57348 z"
       id="path52" /><path
       style="fill:none;stroke:#000000;stroke-width:0.0843349px;stroke-linecap:round;stroke-linejoin:round;stroke-miterlimit:4;stroke-dasharray:none;stroke-opacity:1"
       d="m 112.20626,182.34276 c 0,0.32047 0.26987,0.59034 0.59034,0.59034 0.32047,0 0.57348,-0.26987 0.57348,-0.59034 0,-0.32047 -0.25301,-0.57348 -0.57348,-0.57348 -0.32047,0 -0.59034,0.25301 -0.59034,0.57348"
       id="path53" /><path
       style="fill:#d8d8d8;fill-opacity:1;fill-rule:evenodd;stroke:none;stroke-width:0.264583"
       d="m 103.53662,182.07289 c 0,-0.30361 0.25301,-0.53975 0.55662,-0.53975 0.28673,0 0.53974,0.23614 0.53974,0.53975 0,0.3036 -0.25301,0.53974 -0.53974,0.53974 -0.30361,0 -0.55662,-0.23614 -0.55662,-0.53974 z"
       id="path54-4" /><path
       style="fill:none;stroke:#000000;stroke-width:0.0843349px;stroke-linecap:round;stroke-linejoin:round;stroke-miterlimit:4;stroke-dasharray:none;stroke-opacity:1"
       d="m 103.53662,182.07289 c 0,-0.30361 0.25301,-0.53975 0.55662,-0.53975 0.28673,0 0.53974,0.23614 0.53974,0.53975 0,0.3036 -0.25301,0.53974 -0.53974,0.53974 -0.30361,0 -0.55662,-0.23614 -0.55662,-0.53974"
       id="path55" /><text
       xml:space="preserve"
       style="font-style:normal;font-variant:normal;font-weight:400;font-size:2.16628px;line-height:125%;font-family:Arial;text-align:start;letter-spacing:0px;word-spacing:0px;text-anchor:start;fill:#000000;fill-opacity:1;stroke:none;stroke-width:0.264583"
       x="105.17836"
       y="182.84727"
       id="text56"><tspan
         sodipodi:role="line"
         x="105.17836"
         y="182.84727"
         id="tspan56"
         style="stroke-width:0.264583"><tspan
           dx="0"
           dy="0"
           style="font-style:normal;font-variant:normal;font-weight:400;font-size:2.16628px;font-family:Arial;fill:#000000;stroke-width:0.264583"
           id="tspan55">+</tspan></tspan></text><path
       style="fill:#d8d8d8;fill-opacity:1;fill-rule:evenodd;stroke:none;stroke-width:0.264583"
       d="m 105.71247,179.96451 c 0,-0.3036 0.253,-0.55661 0.53974,-0.55661 0.3036,0 0.55661,0.25301 0.55661,0.55661 0,0.28674 -0.25301,0.53975 -0.55661,0.53975 -0.28674,0 -0.53974,-0.25301 -0.53974,-0.53975 z"
       id="path57" /><path
       style="fill:none;stroke:#000000;stroke-width:0.0843349px;stroke-linecap:round;stroke-linejoin:round;stroke-miterlimit:4;stroke-dasharray:none;stroke-opacity:1"
       d="m 105.71247,179.96451 c 0,-0.3036 0.253,-0.55661 0.53974,-0.55661 0.3036,0 0.55661,0.25301 0.55661,0.55661 0,0.28674 -0.25301,0.53975 -0.55661,0.53975 -0.28674,0 -0.53974,-0.25301 -0.53974,-0.53975"
       id="path58" /><text
       xml:space="preserve"
       style="font-style:normal;font-variant:normal;font-weight:400;font-size:2.16628px;line-height:125%;font-family:Arial;text-align:start;letter-spacing:0px;word-spacing:0px;text-anchor:start;fill:#000000;fill-opacity:1;stroke:none;stroke-width:0.264583"
       x="107.35007"
       y="180.73363"
       id="text59"><tspan
         sodipodi:role="line"
         x="107.35007"
         y="180.73363"
         id="tspan59"
         style="stroke-width:0.264583"><tspan
           dx="0"
           dy="0"
           style="font-style:normal;font-variant:normal;font-weight:400;font-size:2.16628px;font-family:Arial;fill:#000000;stroke-width:0.264583"
           id="tspan58">+</tspan></tspan></text><path
       style="fill:#d8d8d8;fill-opacity:1;fill-rule:evenodd;stroke:none;stroke-width:0.264583"
       d="m 106.25221,178.32842 c 0,-0.30361 0.253,-0.53975 0.55661,-0.53975 0.28674,0 0.53974,0.23614 0.53974,0.53975 0,0.3036 -0.253,0.53974 -0.53974,0.53974 -0.30361,0 -0.55661,-0.23614 -0.55661,-0.53974 z"
       id="path60" /><path
       style="fill:none;stroke:#000000;stroke-width:0.0843349px;stroke-linecap:round;stroke-linejoin:round;stroke-miterlimit:4;stroke-dasharray:none;stroke-opacity:1"
       d="m 106.25221,178.32842 c 0,-0.30361 0.253,-0.53975 0.55661,-0.53975 0.28674,0 0.53974,0.23614 0.53974,0.53975 0,0.3036 -0.253,0.53974 -0.53974,0.53974 -0.30361,0 -0.55661,-0.23614 -0.55661,-0.53974"
       id="path61" /><text
       xml:space="preserve"
       style="font-style:normal;font-variant:normal;font-weight:400;font-size:2.16628px;line-height:125%;font-family:Arial;text-align:start;letter-spacing:0px;word-spacing:0px;text-anchor:start;fill:#000000;fill-opacity:1;stroke:none;stroke-width:0.264583"
       x="107.89299"
       y="179.10484"
       id="text62"><tspan
         sodipodi:role="line"
         x="107.89299"
         y="179.10484"
         id="tspan62"
         style="stroke-width:0.264583"><tspan
           dx="0"
           dy="0"
           style="font-style:normal;font-variant:normal;font-weight:400;font-size:2.16628px;font-family:Arial;fill:#000000;stroke-width:0.264583"
           id="tspan61">+</tspan></tspan></text><path
       style="fill:#d8d8d8;fill-opacity:1;fill-rule:evenodd;stroke:none;stroke-width:0.264583"
       d="m 104.63298,177.78867 c 0,-0.3036 0.23614,-0.53974 0.53974,-0.53974 0.30361,0 0.53975,0.23614 0.53975,0.53974 0,0.30361 -0.23614,0.53975 -0.53975,0.53975 -0.3036,0 -0.53974,-0.23614 -0.53974,-0.53975 z"
       id="path63" /><path
       style="fill:none;stroke:#000000;stroke-width:0.0843349px;stroke-linecap:round;stroke-linejoin:round;stroke-miterlimit:4;stroke-dasharray:none;stroke-opacity:1"
       d="m 104.63298,177.78867 c 0,-0.3036 0.23614,-0.53974 0.53974,-0.53974 0.30361,0 0.53975,0.23614 0.53975,0.53974 0,0.30361 -0.23614,0.53975 -0.53975,0.53975 -0.3036,0 -0.53974,-0.23614 -0.53974,-0.53975"
       id="path64" /><text
       xml:space="preserve"
       style="font-style:normal;font-variant:normal;font-weight:400;font-size:2.16628px;line-height:125%;font-family:Arial;text-align:start;letter-spacing:0px;word-spacing:0px;text-anchor:start;fill:#000000;fill-opacity:1;stroke:none;stroke-width:0.264583"
       x="106.26421"
       y="178.56192"
       id="text65"><tspan
         sodipodi:role="line"
         x="106.26421"
         y="178.56192"
         id="tspan65"
         style="stroke-width:0.264583"><tspan
           dx="0"
           dy="0"
           style="font-style:normal;font-variant:normal;font-weight:400;font-size:2.16628px;font-family:Arial;fill:#000000;stroke-width:0.264583"
           id="tspan64">+</tspan></tspan></text><text
       xml:space="preserve"
       style="font-style:italic;font-variant:normal;font-weight:400;font-size:2.16628px;line-height:125%;font-family:Arial;text-align:start;letter-spacing:0px;word-spacing:0px;text-anchor:start;fill:#000000;fill-opacity:1;stroke:none;stroke-width:0.264583"
       x="105.18719"
       y="186.64427"
       id="text67"><tspan
         sodipodi:role="line"
         x="105.18719"
         y="186.64427"
         id="tspan67"
         style="stroke-width:0.264583"><tspan
           dx="0"
           dy="0"
           style="font-style:italic;font-variant:normal;font-weight:400;font-size:2.16628px;font-family:Arial;fill:#000000;stroke-width:0.264583"
           id="tspan66">Li</tspan></tspan></text><text
       xml:space="preserve"
       style="font-style:italic;font-variant:normal;font-weight:400;font-size:1.35599px;line-height:125%;font-family:Arial;text-align:start;letter-spacing:0px;word-spacing:0px;text-anchor:start;fill:#000000;fill-opacity:1;stroke:none;stroke-width:0.264583"
       x="107.03711"
       y="182.55124"
       id="text69"><tspan
         sodipodi:role="line"
         x="107.03711"
         y="182.55124"
         id="tspan69"
         style="stroke-width:0.264583"><tspan
           dx="0"
           dy="0"
           style="font-style:italic;font-variant:normal;font-weight:400;font-size:1.35599px;font-family:Arial;fill:#000000;stroke-width:0.264583"
           id="tspan68">+</tspan></tspan></text><path
       style="fill:none;stroke:#c00000;stroke-width:0.0843349px;stroke-linecap:round;stroke-linejoin:round;stroke-miterlimit:4;stroke-dasharray:none;stroke-opacity:1"
       d="m 105.61126,176.52365 h 2.09151"
       id="path69" /><path
       style="fill:#c00000;fill-opacity:1;fill-rule:evenodd;stroke:none;stroke-width:0.264583"
       d="m 107.50037,175.5285 0.99515,0.99515 -0.99515,0.99515 z"
       id="path70" /><path
       style="fill:none;stroke:#9dbb61;stroke-width:0.0843349px;stroke-linecap:round;stroke-linejoin:round;stroke-miterlimit:4;stroke-dasharray:none;stroke-opacity:1"
       d="m 106.31968,184.08006 h -2.09151"
       id="path71" /><path
       style="fill:#9dbb61;fill-opacity:1;fill-rule:evenodd;stroke:none;stroke-width:0.264583"
       d="m 104.43057,185.07521 -0.99515,-0.99515 0.99515,-0.99515 z"
       id="path72" /></g></svg>
